<?xml version="1.0" encoding="UTF-8" standalone="no"?>
<!DOCTYPE svg PUBLIC "-//W3C//DTD SVG 1.1//EN" "http://www.w3.org/Graphics/SVG/1.1/DTD/svg11.dtd">
<svg width="100%" height="100%" viewBox="0 0 200 200" version="1.1" xmlns="http://www.w3.org/2000/svg" xmlns:xlink="http://www.w3.org/1999/xlink" xml:space="preserve" xmlns:serif="http://www.serif.com/" style="fill-rule:evenodd;clip-rule:evenodd;stroke-linejoin:round;stroke-miterlimit:2;">
    <g transform="matrix(1,0,0,1,-35.0368,-834.511)">
        <g transform="matrix(0.630099,-0.0216857,0.0216857,0.630099,-25.8104,335.951)">
            <circle cx="288.289" cy="972.108" r="34.575" style="fill:rgb(46,207,115);"/>
        </g>
        <g transform="matrix(0.538232,-0.018524,0.018524,0.538232,23.5027,534.49)">
            <path d="M255.204,731.33L255.204,800.358C237.084,799.286 222.699,784.232 222.699,765.844C222.699,747.457 237.084,732.402 255.204,731.33Z" style="fill:rgb(23,184,92);"/>
        </g>
        <g transform="matrix(0.269829,0.0796556,-0.0534138,0.180936,152.549,731.776)">
            <path d="M274.738,879.633C266.995,879.633 260.709,896.655 260.709,917.621C260.709,938.587 266.995,955.609 274.738,955.609C272.415,946.745 270.529,932.775 270.529,917.621C270.529,902.468 272.415,888.497 274.738,879.633Z" style="fill:rgb(16,141,69);"/>
        </g>
        <g transform="matrix(7.57082,0,0,6.51982,-2107.42,-1317.35)">
            <path d="M301.086,348.167C301.086,350.41 299.269,352.228 297.022,352.228C294.781,352.228 292.962,350.41 292.962,348.167C292.962,345.925 294.781,344.106 297.022,344.106C299.269,344.106 301.086,345.925 301.086,348.167Z" style="fill:rgb(224,136,29);fill-rule:nonzero;"/>
        </g>
        <g transform="matrix(7.02174,0,0,6.13669,-1946.56,-1182.4)">
            <path d="M301.086,348.167C301.086,350.41 299.269,352.228 297.022,352.228C294.781,352.228 292.962,350.41 292.962,348.167C292.962,345.925 294.781,344.106 297.022,344.106C299.269,344.106 301.086,345.925 301.086,348.167Z" style="fill:rgb(230,126,0);fill-rule:nonzero;"/>
        </g>
        <g transform="matrix(4.62467,0,0,4.74761,-1286.62,-685.503)">
            <path d="M301.086,348.167C301.086,350.41 299.269,352.228 297.022,352.228C294.781,352.228 292.962,350.41 292.962,348.167C292.962,345.925 294.781,344.106 297.022,344.106C299.269,344.106 301.086,345.925 301.086,348.167Z" style="fill:rgb(224,136,29);fill-rule:nonzero;"/>
        </g>
        <g transform="matrix(4.28927,0,0,4.46862,-1188.36,-587.237)">
            <path d="M301.086,348.167C301.086,350.41 299.269,352.228 297.022,352.228C294.781,352.228 292.962,350.41 292.962,348.167C292.962,345.925 294.781,344.106 297.022,344.106C299.269,344.106 301.086,345.925 301.086,348.167Z" style="fill:rgb(230,126,0);fill-rule:nonzero;"/>
        </g>
        <g transform="matrix(1.44227,0,0,1.44227,-45.1637,-88.1536)">
            <path d="M136.357,662.355L88.001,662.355C85.384,662.355 83.365,664.49 83.514,667.104C83.514,667.104 90.541,693.37 92.356,703.898C93.957,713.182 94.119,740.69 94.119,740.69C94.268,743.303 96.532,745.441 99.149,745.441L125.209,745.441C127.826,745.441 130.089,743.303 130.239,740.69C130.239,740.69 130.401,713.182 132.002,703.898C133.816,693.37 140.843,667.104 140.843,667.104C140.993,664.49 138.974,662.355 136.357,662.355Z" style="fill:rgb(237,242,243);fill-rule:nonzero;"/>
        </g>
        <g transform="matrix(1.22086,0,0,1.84373,-18.4514,-374.037)">
            <path d="M97.24,729.468C101.365,732.165 106.541,731.612 112.179,731.612C117.817,731.612 122.993,732.165 127.118,729.468C127.241,723.478 127.584,712.868 128.504,708.391C130,701.127 134.189,683.003 134.189,683.003C134.313,681.199 132.649,679.724 130.494,679.724L93.864,679.724C91.708,679.724 90.046,681.199 90.168,683.003C90.168,683.003 94.357,701.127 95.853,708.391C96.774,712.868 97.117,723.478 97.24,729.468Z" style="fill:rgb(82,179,57);fill-rule:nonzero;"/>
        </g>
        <g transform="matrix(1.44227,0,0,1.44227,-45.1637,-88.1536)">
            <path d="M99.149,745.441L99.149,745.441C97.992,745.441 96.904,745.023 96.037,744.331C96.904,745.023 97.992,745.441 99.149,745.441Z" style="fill:rgb(101,183,179);fill-rule:nonzero;"/>
        </g>
        <g transform="matrix(1.44227,0,0,1.44227,-45.1637,-88.1536)">
            <path d="M112.178,745.441L99.149,745.441C97.992,745.441 96.904,745.023 96.037,744.331C94.944,743.457 94.203,742.147 94.12,740.69C94.12,740.69 93.958,713.182 92.357,703.898C90.695,694.265 84.671,671.453 83.659,667.647C83.565,667.293 83.514,667.104 83.514,667.104C83.509,667.012 83.506,666.921 83.506,666.83C83.508,664.343 85.476,662.355 88.002,662.355L112.178,662.355L112.178,679.724L93.864,679.724C91.708,679.724 90.046,681.199 90.168,683.003C90.168,683.003 94.357,701.127 95.853,708.391C96.774,712.868 97.117,723.478 97.24,729.468C101.365,732.165 106.54,733.782 112.178,733.782L112.178,745.441Z" style="fill:rgb(224,228,229);fill-rule:nonzero;"/>
        </g>
        <g transform="matrix(1.44227,0,0,1.84373,-42.1637,-374.037)">
            <path d="M112.178,732.155C106.54,732.155 101.365,732.165 97.24,729.468C97.117,723.478 96.774,712.868 95.853,708.391C94.357,701.127 90.168,683.003 90.168,683.003C90.046,681.199 91.708,679.724 93.864,679.724L112.178,679.724L112.178,732.155Z" style="fill:rgb(94,158,75);fill-rule:nonzero;"/>
        </g>
        <g transform="matrix(-0.206184,-1.04459,0.756197,-0.254748,-502.605,1488.14)">
            <path d="M290.036,885.089C263.805,893.471 249.649,917.204 249.649,956.319C249.649,995.435 265.326,1021.44 291.335,1021.44C280.567,1007.59 275.982,986.015 275.982,955.978C275.982,925.94 279.269,898.933 290.036,885.089Z" style="fill:rgb(173,166,15);"/>
        </g>
        <g transform="matrix(-0.18736,-0.949225,0.775061,-0.261102,-527.995,1465.42)">
            <path d="M295.491,885.105C269.482,885.105 248.367,916.862 248.367,955.978C248.367,995.093 269.482,1026.85 295.491,1026.85C284.724,1013.01 275.982,986.015 275.982,955.978C275.982,925.94 284.724,898.949 295.491,885.105Z" style="fill:rgb(232,222,20);"/>
        </g>
        <g transform="matrix(-0.0886259,-0.405439,0.812655,-0.303478,-588.175,1362.9)">
            <path d="M340.906,889.12C314.897,889.12 248.367,916.862 248.367,955.978C248.367,995.093 300.288,1019.32 326.296,1019.32C294.03,1007.04 261.338,988.325 261.338,955.311C261.338,922.297 311.43,899.365 340.906,889.12Z" style="fill:rgb(223,214,35);"/>
        </g>
    </g>
</svg>
