<?xml version="1.0" encoding="UTF-8" standalone="no"?><!DOCTYPE svg PUBLIC "-//W3C//DTD SVG 1.1//EN" "http://www.w3.org/Graphics/SVG/1.1/DTD/svg11.dtd"><svg width="100%" height="100%" viewBox="0 0 200 200" version="1.1" xmlns="http://www.w3.org/2000/svg" xmlns:xlink="http://www.w3.org/1999/xlink" xml:space="preserve" xmlns:serif="http://www.serif.com/" style="fill-rule:evenodd;clip-rule:evenodd;stroke-linejoin:round;stroke-miterlimit:1.41421;"><path d="M117.458,86.346c0.528,1.061 0.971,1.899 1.018,3.091c0.038,1.042 -1.301,3.585 -1.554,4.108c0.025,-0.172 -0.185,-0.373 -0.525,-0.226c-0.394,0.18 -0.13,-0.443 -0.351,-0.925c-0.223,-0.484 -0.838,-0.044 -0.794,-0.267c0.046,-0.217 0.22,-1.189 -0.221,-1.499c-0.44,-0.307 -0.84,-1.676 -0.927,-2.25c-0.087,-0.574 0.31,-0.881 -0.308,-0.794c-0.62,0.087 -1.896,-1.545 -2.913,-2.206c-0.213,-0.136 -0.49,-0.302 -0.803,-0.471c2.329,0.087 4.66,0.182 6.954,0.275c0.095,0.386 0.228,0.775 0.424,1.164m-35.264,-1.632c-0.748,0.223 -1.632,0.84 -2.116,0.794c-0.487,-0.043 -0.928,-0.087 -1.325,0.441c-0.397,0.53 0.046,0.974 -0.705,2.119c-0.751,1.151 -0.93,1.151 -0.797,2.166c0.136,1.012 -0.174,1.276 -0.751,1.719c-0.571,0.441 -0.702,1.105 -0.702,1.105l-0.49,0.133c-0.481,0.128 -1.148,-3.003 -1.545,-4.151c-0.394,-1.149 -0.043,-0.618 0.887,-1.943c0.691,-0.985 0.89,-1.877 0.966,-2.614c2.356,-0.058 4.712,-0.109 6.981,-0.142c-0.082,0.174 -0.191,0.313 -0.403,0.373m86.239,-13.059c-1.632,-0.139 -19.196,-1.151 -21.225,-1.197c-1.984,-0.043 -5.27,1.388 -6.081,13.788c-2.778,-0.155 -9.606,-0.517 -17.082,-0.854c-0.014,-0.077 -0.03,-0.155 -0.055,-0.223c-0.264,-0.746 -1.191,-0.662 -1.191,-0.662c0,0 -0.044,-0.263 -0.487,-0.574c-0.438,-0.307 -1.102,0.311 -1.102,0.311c0,0 -0.264,-0.882 -0.882,-0.928c-0.62,-0.041 -1.148,0.884 -1.104,0.751c0.043,-0.134 -0.264,-1.276 -0.661,-1.146c-0.397,0.134 -0.882,1.102 -1.148,1.323c-0.232,0.19 -0.493,0.282 -0.558,0.851c-3.858,-0.15 -7.604,-0.269 -10.773,-0.326c-0.191,-0.15 -0.447,-0.324 -0.806,-0.525c-1.412,-0.795 -3.618,-1.543 -3.705,-1.812c-0.09,-0.264 0.305,-1.807 0.305,-1.807c0,0 1.194,-0.487 1.017,-1.104c-0.174,-0.618 0.177,-1.369 0.133,-2.427c-0.046,-1.058 -0.84,-0.667 -0.84,-0.667c0,0 -0.044,-7.544 -6.573,-7.277c-6.532,0.264 -5.694,6.222 -5.694,7.59c-1.502,-0.753 -0.928,2.383 -0.574,3.178c0.351,0.794 0.968,0.617 0.968,0.617c0,0 0.133,0.574 0.444,0.969c0.307,0.403 -0.047,0.53 -0.311,1.594c-1.278,0 -3,1.102 -4.015,1.543c-0.011,0.005 -0.022,0.013 -0.033,0.013c-3.4,-0.008 -6.954,-0.008 -10.523,0.006c0.082,-0.381 0.106,-0.716 -0.128,-0.944c-0.441,-0.441 0,-1.366 -0.658,-1.418c-0.664,-0.04 -1.061,1.284 -1.061,1.284c0,0 0,-0.307 -0.267,-0.351c-0.261,-0.046 -1.278,-0.356 -1.542,0.308c-0.398,-0.441 -1.369,-0.133 -1.589,0.443c-0.838,-0.356 -1.369,-0.092 -1.545,0.482c-0.022,0.073 -0.041,0.155 -0.058,0.245c-5.724,0.065 -11.227,0.179 -15.882,0.392c-0.207,-10.766 -3.88,-14.229 -5.509,-14.142c-1.676,0.09 -17.567,0.441 -19.994,0.571c-2.427,0.134 -6.135,3.798 -6.135,15.584c0,11.785 4.636,15.178 6.492,15.134c1.85,-0.041 17.387,-0.087 21.005,-0.304c3.455,-0.213 4.095,-6.582 4.143,-14.721c2.781,-0.115 8.815,-0.349 15.657,-0.553c-0.125,0.297 -0.688,0.667 -0.647,1.766c0.046,1.148 0.177,1.632 0.62,2.076c0.444,0.44 -0.307,1.012 0.444,4.766c0.748,3.752 2.6,8.388 4.366,9.179c0.751,0.795 1.502,1.456 2.957,1.366c1.459,-0.084 3.311,-2.117 4.239,-3.218c0.745,-0.313 1.632,-1.81 1.676,-1.633c0.043,0.177 0.354,0.882 0.617,1.146c0.264,0.264 0.441,0.44 0.218,0.704c-0.218,0.267 -0.528,0.844 0.046,1.284c0.574,0.441 0.661,0.882 0.487,1.323c-0.177,0.44 -0.043,1.15 -0.043,1.15c0,0 -2.386,-1.284 -6.355,-0.84c-3.975,0.438 -5.431,3.789 -5.608,8.559c-0.176,4.769 1.323,6.621 2.65,7.639c1.325,1.012 2.868,3.178 3.355,4.192c0.481,1.012 1.145,0.572 1.278,0.749c0.131,0.176 0.308,0.043 0.221,0.35c-0.09,0.316 0.264,1.064 0.087,1.285c-0.177,0.22 -0.571,0.661 -0.571,0.661c0,0 -0.575,0.44 -1.105,0.617c-0.531,0.177 -0.351,0.792 -0.397,1.499c-0.044,0.71 -1.105,1.369 -2.604,2.476c-1.502,1.102 -2.473,4.764 1.72,4.851c4.192,0.09 5.25,-2.827 5.694,-3.175c0.443,-0.357 1.281,-0.357 1.986,-0.62c0.707,-0.264 1.412,-0.572 1.368,-1.056c-0.043,-0.49 -0.177,-3.58 -0.264,-4.946c-0.089,-1.368 -0.53,-1.989 -1.104,-1.858c-0.661,-0.261 -1.369,-3.216 -1.369,-3.216c0,0 0.264,-0.49 -0.043,-0.797c-0.308,-0.31 -0.618,-1.545 -0.618,-1.768c0,-0.218 -0.22,-0.925 2.073,1.017c2.296,1.943 6.445,1.371 8.075,1.148c1.635,-0.22 4.592,0.046 10.11,-0.133c5.517,-0.174 8.344,-4.146 8.297,-3.705c-0.043,0.44 0.531,1.411 0.485,1.852c-0.044,0.441 -0.088,1.018 -0.264,1.412c-0.174,0.397 0,0.441 0.043,0.62c0.046,0.177 -0.53,1.986 -0.884,3.529c-1.012,-0.09 -1.368,0.748 -1.322,2.206c0.043,1.456 0,3.488 -0.087,3.932c-0.09,0.44 -0.264,0.878 0.794,1.368c1.058,0.482 2.206,0.308 2.206,0.308c0,0 0.795,0.307 1.015,1.278c0.218,0.969 0.487,1.635 2.43,2.383c1.939,0.751 4.146,0.177 4.453,-0.614c0.313,-0.8 0.534,-2.117 -0.351,-3.401c-0.881,-1.282 -2.56,-2.737 -2.426,-2.868c0.133,-0.136 -0.09,-0.579 -0.882,-1.107c0.174,-0.968 -0.487,-1.412 -0.751,-1.412c-0.266,0 -0.576,-0.174 -0.489,-0.574c0.089,-0.392 0.089,-0.699 -0.264,-1.017c-0.041,-0.966 0.974,-2.248 0.974,-2.248c0,0 1.191,-0.617 1.232,-1.545c0.046,-0.925 0.577,-1.279 1.989,-2.56c1.412,-1.276 2.56,-5.028 2.296,-8.825c-0.267,-3.796 -1.989,-4.854 -3.401,-6.005c2.517,-2.114 4.019,-5.425 4.59,-7.985c0.574,-2.56 1.591,-5.473 1.678,-6.842c0.487,-0.397 0.662,-2.821 0.398,-3.398c-0.06,-0.125 -0.085,-0.299 -0.093,-0.5c7.381,0.34 13.69,0.677 16.985,0.884c-0.289,7.019 0.193,14.547 3.321,14.797c3.309,0.264 20.614,1.371 21.893,1.415c1.276,0.04 4.946,-0.43 6.312,-14.262c1.188,-12.087 -2.473,-16.543 -4.109,-16.674" style="fill:#fff;fill-rule:nonzero;"/></svg>