<?xml version="1.0" encoding="UTF-8" standalone="no"?><!DOCTYPE svg PUBLIC "-//W3C//DTD SVG 1.1//EN" "http://www.w3.org/Graphics/SVG/1.1/DTD/svg11.dtd"><svg width="100%" height="100%" viewBox="0 0 200 200" version="1.1" xmlns="http://www.w3.org/2000/svg" xmlns:xlink="http://www.w3.org/1999/xlink" xml:space="preserve" xmlns:serif="http://www.serif.com/" style="fill-rule:evenodd;clip-rule:evenodd;stroke-linejoin:round;stroke-miterlimit:1.41421;"><ellipse cx="100" cy="157.635" rx="86.272" ry="10.179" style="fill:#3b9b97;"/><path d="M136.521,145.856c0,2.74 -2.451,4.977 -5.446,4.977l-62.305,0c-2.996,0 -5.447,-2.237 -5.447,-4.977l0,-83.099c0,-2.74 2.451,-4.98 5.447,-4.98l62.305,0c2.995,0 5.446,2.24 5.446,4.98l0,83.099Z" style="fill:#edf2f3;fill-rule:nonzero;"/><path d="M132.096,142.371c0,2.511 -2.153,4.566 -4.783,4.566l-54.696,0c-2.631,0 -4.785,-2.055 -4.785,-4.566l0,-76.131c0,-2.51 2.154,-4.563 4.785,-4.563l54.696,0c2.63,0 4.783,2.053 4.783,4.563l0,76.131Z" style="fill:#ffc600;fill-rule:nonzero;"/><rect x="67.832" y="56.414" width="64.263" height="13.621" style="fill:#fefaec;fill-rule:nonzero;"/><path d="M99.732,150.833l-30.962,0c-2.996,0 -5.447,-2.237 -5.447,-4.977l0,-83.099c0,-2.447 1.957,-4.497 4.509,-4.907l0,84.521c0,2.511 2.154,4.566 4.785,4.566l27.115,0l0,3.896Z" style="fill:#e0e4e5;fill-rule:nonzero;"/><path d="M99.732,146.937l-27.115,0c-2.631,0 -4.785,-2.055 -4.785,-4.566l0,-76.131l0,3.794l31.9,0l0,76.903Z" style="fill:#d4b020;fill-rule:nonzero;"/><path d="M99.732,70.034l-31.9,0l0,-3.794l0,-8.39l0,-0.028c0.245,-0.028 0.494,-0.045 0.748,-0.045l31.152,0l0,12.257Z" style="fill:#eceae0;fill-rule:nonzero;"/><path d="M132.096,41.32c-0.884,0 -1.745,0.097 -2.578,0.276c-0.961,-2.116 -2.497,-3.908 -4.418,-5.176c-0.982,-5.782 -6.005,-10.194 -12.072,-10.194c-3.865,0 -7.309,1.796 -9.556,4.593c-1.381,-0.54 -2.883,-0.848 -4.458,-0.848c-0.604,0 -1.192,0.06 -1.773,0.143c-2.146,-3.552 -6.033,-5.928 -10.484,-5.928c-5.67,0 -10.426,3.853 -11.827,9.079c-7.933,0.677 -14.162,7.326 -14.162,15.432c0,8.557 6.936,15.492 15.492,15.492c5.609,0 10.521,-2.985 13.239,-7.445c1.872,4.377 6.214,7.445 11.275,7.445c3.713,0 7.035,-1.66 9.282,-4.267c2.005,4.034 6.158,6.82 10.975,6.82c2.355,0 4.547,-0.677 6.414,-1.827c1.435,0.59 3.003,0.921 4.651,0.921c6.769,0 12.257,-5.49 12.257,-12.259c0,-6.771 -5.488,-12.257 -12.257,-12.257Z" style="fill:#fffef8;fill-rule:nonzero;"/><path d="M133.634,151.966l-67.618,0c-1.584,0 -2.883,1.295 -2.883,2.885l0,1.811l73.388,0l0,-1.63l0,-0.181c0,-1.59 -1.298,-2.885 -2.887,-2.885Z" style="fill:#edf2f3;fill-rule:nonzero;"/></svg>