<?xml version="1.0" encoding="UTF-8" standalone="no"?><!DOCTYPE svg PUBLIC "-//W3C//DTD SVG 1.1//EN" "http://www.w3.org/Graphics/SVG/1.1/DTD/svg11.dtd"><svg width="100%" height="100%" viewBox="0 0 200 200" version="1.1" xmlns="http://www.w3.org/2000/svg" xmlns:xlink="http://www.w3.org/1999/xlink" xml:space="preserve" xmlns:serif="http://www.serif.com/" style="fill-rule:evenodd;clip-rule:evenodd;stroke-linejoin:round;stroke-miterlimit:1.41421;"><ellipse cx="100" cy="156.9" rx="86.272" ry="10.179" style="fill:#3b9b97;"/><path d="M133.484,43.563c1.946,-2.47 1.156,-4.494 -1.757,-4.494l-64.023,0c-2.91,0 -3.7,2.019 -1.749,4.488l30.292,38.312c1.951,2.467 5.14,2.464 7.087,-0.008l30.15,-38.298Z" style="fill:#edf2f3;fill-rule:nonzero;"/><path d="M121.465,55.281c1.256,-1.61 0.746,-2.928 -1.131,-2.928l-41.236,0c-1.876,0 -2.385,1.315 -1.127,2.925l19.51,24.965c1.258,1.607 3.309,1.605 4.564,-0.005l19.42,-24.957Z" style="fill:#e2696a;fill-rule:nonzero;"/><path d="M116.707,153.862l-15.501,0l0,-69.104c-0.971,0.36 -1.998,0.345 -2.967,-0.047l0,69.151l-15.498,0c-0.652,0 -1.193,0.619 -1.193,1.374l0,0.802l36.34,0l0,-0.802c0,-0.755 -0.533,-1.374 -1.181,-1.374Z" style="fill:#edf2f3;fill-rule:nonzero;"/><path d="M107.021,72.044c-0.025,2.313 -2.204,4.167 -4.867,4.14c-2.665,-0.027 -4.805,-1.924 -4.782,-4.236c0.025,-2.315 2.203,-4.168 4.867,-4.142c2.663,0.028 4.804,1.924 4.782,4.238Z" style="fill:#78a57c;fill-rule:nonzero;"/><path d="M101.229,71.459c0,0.836 -0.677,1.514 -1.514,1.514c-0.836,0 -1.511,-0.678 -1.511,-1.514c0,-0.834 0.675,-1.512 1.511,-1.512c0.837,0 1.514,0.678 1.514,1.512Z" style="fill:#984848;fill-rule:nonzero;"/><path d="M96.57,82.245c-0.001,-0.001 -0.001,-0.001 -0.002,-0.003c0.001,0 0.002,0.003 0.002,0.003Zm-0.022,-0.023c-0.003,-0.005 -0.008,-0.01 -0.012,-0.015c0.004,0.005 0.009,0.01 0.012,0.015Zm-0.022,-0.025c-0.006,-0.007 -0.015,-0.015 -0.022,-0.023c0.007,0.008 0.016,0.015 0.022,0.023Zm-0.022,-0.024c-0.089,-0.096 -0.174,-0.198 -0.257,-0.304l-30.292,-38.312c-0.724,-0.916 -1.071,-1.77 -1.071,-2.482c0,0.712 0.347,1.566 1.071,2.482l30.292,38.312c0.083,0.106 0.168,0.207 0.257,0.304Z" style="fill:#65b7b3;fill-rule:nonzero;"/><path d="M99.715,83.708c-1.121,-0.02 -2.238,-0.504 -3.145,-1.463c0,0 -0.001,-0.003 -0.002,-0.003c-0.007,-0.007 -0.013,-0.013 -0.02,-0.02c-0.003,-0.005 -0.008,-0.01 -0.012,-0.015c-0.004,-0.003 -0.006,-0.006 -0.01,-0.01c-0.006,-0.008 -0.015,-0.015 -0.022,-0.023l0,-0.001c-0.089,-0.097 -0.174,-0.198 -0.257,-0.304l-30.292,-38.312c-0.724,-0.916 -1.071,-1.77 -1.071,-2.482c-0.002,-1.207 0.99,-2.006 2.82,-2.006l32.011,0l0,13.284l-20.617,0c-1.876,0 -2.385,1.315 -1.127,2.925l19.51,24.965c0.617,0.788 1.424,1.189 2.234,1.204l0,2.261Z" style="fill:#e0e4e5;fill-rule:nonzero;"/><path d="M99.715,81.447c-0.81,-0.015 -1.617,-0.416 -2.234,-1.204l-19.51,-24.965c-1.258,-1.61 -0.749,-2.925 1.127,-2.925l20.617,0l0,16.044c-1.391,0.723 -2.327,2.037 -2.343,3.551c-0.015,1.537 0.926,2.892 2.343,3.635l0,5.864Z" style="fill:#da8687;fill-rule:nonzero;"/><path d="M99.715,75.583c-1.417,-0.743 -2.358,-2.098 -2.343,-3.635c0.016,-1.514 0.952,-2.828 2.343,-3.551l0,1.55c-0.836,0 -1.511,0.678 -1.511,1.512c0,0.836 0.675,1.514 1.511,1.514l0,2.61Z" style="fill:#8fb094;fill-rule:nonzero;"/><path d="M99.715,72.973c-0.836,0 -1.511,-0.678 -1.511,-1.514c0,-0.834 0.675,-1.512 1.511,-1.512l0,3.026Z" style="fill:#a56e6e;fill-rule:nonzero;"/><path d="M134.436,36.231c-0.375,0 -0.68,0.284 -0.68,0.637l0.071,0.268l-35.387,40.034l0.452,0.401l35.433,-40.088l0.111,0.022c0.376,0 0.681,-0.287 0.681,-0.637c0,-0.353 -0.305,-0.637 -0.681,-0.637Z" style="fill:#7e7673;fill-rule:nonzero;"/></svg>