<?xml version="1.0" encoding="UTF-8" standalone="no"?><!DOCTYPE svg PUBLIC "-//W3C//DTD SVG 1.1//EN" "http://www.w3.org/Graphics/SVG/1.1/DTD/svg11.dtd"><svg width="100%" height="100%" viewBox="0 0 200 200" version="1.1" xmlns="http://www.w3.org/2000/svg" xmlns:xlink="http://www.w3.org/1999/xlink" xml:space="preserve" xmlns:serif="http://www.serif.com/" style="fill-rule:evenodd;clip-rule:evenodd;stroke-linejoin:round;stroke-miterlimit:1.41421;"><ellipse cx="100" cy="156.9" rx="86.272" ry="10.179" style="fill:#3b9b97;"/><g><path d="M127.399,148.816c-0.176,3.133 -2.891,5.696 -6.03,5.696l-42.738,0c-3.135,0 -5.851,-2.563 -6.031,-5.696l-5.054,-88.233c-0.177,-3.13 2.242,-5.694 5.38,-5.694l54.148,0c3.139,0 5.56,2.564 5.38,5.694l-5.055,88.233Z" style="fill:#edf2f3;fill-rule:nonzero;"/><path d="M123.55,134.664c-0.153,2.251 -2.484,4.092 -5.181,4.092l-36.736,0c-2.696,0 -5.028,-1.841 -5.184,-4.092l-4.343,-63.427c-0.154,-2.253 1.927,-4.092 4.623,-4.092l46.543,0c2.697,0 4.777,1.839 4.625,4.092l-4.347,63.427Z" style="fill:#d9ddd3;fill-rule:nonzero;"/><path d="M100.002,154.512l-21.371,0c-3.135,0 -5.851,-2.563 -6.031,-5.696l-5.054,-88.233c-0.006,-0.109 -0.01,-0.218 -0.01,-0.327c0.004,-2.979 2.363,-5.367 5.39,-5.367l27.076,0l0,12.256l-23.273,0c-2.696,0 -4.777,1.839 -4.623,4.092l4.343,63.427c0.156,2.251 2.488,4.092 5.184,4.092l18.369,0l0,15.756Z" style="fill:#e0e4e5;fill-rule:nonzero;"/><path d="M100.002,138.756l-18.369,0c-2.696,0 -5.028,-1.841 -5.184,-4.092l-4.343,-63.427c-0.154,-2.253 1.927,-4.092 4.623,-4.092l23.273,0l0,71.611Z" style="fill:#d2ddbd;fill-rule:nonzero;"/></g></svg>