<?xml version="1.0" encoding="UTF-8" standalone="no"?><!DOCTYPE svg PUBLIC "-//W3C//DTD SVG 1.1//EN" "http://www.w3.org/Graphics/SVG/1.1/DTD/svg11.dtd"><svg width="100%" height="100%" viewBox="0 0 200 200" version="1.1" xmlns="http://www.w3.org/2000/svg" xmlns:xlink="http://www.w3.org/1999/xlink" xml:space="preserve" xmlns:serif="http://www.serif.com/" style="fill-rule:evenodd;clip-rule:evenodd;stroke-linejoin:round;stroke-miterlimit:1.41421;"><ellipse cx="100" cy="156.9" rx="86.272" ry="10.179" style="fill:#3b9b97;"/><path d="M137.751,88.503l0,4.984c12.247,0 20.814,8.383 20.814,19.421c0,11.038 -8.567,19.423 -20.814,19.423l0,4.975c14.948,0 27.063,-10.925 27.063,-24.398c0,-13.481 -12.115,-24.405 -27.063,-24.405Z" style="fill:#edf2f3;fill-rule:nonzero;"/><path d="M137.751,76.069l0,74.469c0,3.163 -3.196,5.751 -7.11,5.751l-58.341,0c-3.911,0 -7.114,-2.588 -7.114,-5.751l0,-74.469l72.565,0Z" style="fill:#edf2f3;fill-rule:nonzero;"/><path d="M133.767,80.991l0,66.268c0,2.818 -2.849,5.119 -6.332,5.119l-51.917,0c-3.479,0 -6.331,-2.301 -6.331,-5.119l0,-66.268l64.58,0Z" style="fill:#b75526;fill-rule:nonzero;"/><path d="M101.476,156.289l-29.176,0c-3.911,0 -7.114,-2.588 -7.114,-5.751l0,-74.469l36.29,0l0,4.922l-32.289,0l0,66.268c0,2.818 2.852,5.119 6.331,5.119l25.958,0l0,3.911Z" style="fill:#e0e4e5;fill-rule:nonzero;"/><path d="M101.476,152.378l-25.958,0c-3.479,0 -6.331,-2.301 -6.331,-5.119l0,-66.268l32.289,0l0,71.387Z" style="fill:#bb7756;fill-rule:nonzero;"/><path d="M108.257,64.393c-0.151,-2.834 -2.629,-5.826 -4.9,-7.687c-1.192,-0.975 -2.476,-1.586 -3.717,-2.177c-0.369,-0.173 -0.738,-0.35 -1.105,-0.534c-0.835,-0.427 -1.218,-0.96 -1.203,-1.68c0.02,-1.351 1.416,-2.916 2.701,-3.528c0.959,-0.458 1.398,-1.384 1.086,-2.303c-0.308,-0.925 -1.244,-1.548 -2.329,-1.548c-0.402,0 -0.805,0.09 -1.161,0.259c-2.501,1.19 -5.178,3.534 -5.189,6.547c-0.019,3.806 2.563,5.336 4.989,6.477c2.636,1.239 7.091,4.66 5.947,7.331c-0.16,0.371 -0.641,1.498 -4.398,1.498c-1.212,0 -2.397,-0.122 -3.178,-0.203l-0.295,-0.016c-1.232,0 -2.191,0.786 -2.27,1.871c-0.094,1.171 0.817,2.152 2.113,2.287c1.005,0.104 2,0.158 2.963,0.158c3.616,0 6.315,-0.734 8.025,-2.174c1.368,-1.156 2.017,-2.698 1.921,-4.578Z" style="fill:#984721;fill-rule:nonzero;"/></svg>