<?xml version="1.0" encoding="UTF-8" standalone="no"?><!DOCTYPE svg PUBLIC "-//W3C//DTD SVG 1.1//EN" "http://www.w3.org/Graphics/SVG/1.1/DTD/svg11.dtd"><svg width="100%" height="100%" viewBox="0 0 200 200" version="1.1" xmlns="http://www.w3.org/2000/svg" xmlns:xlink="http://www.w3.org/1999/xlink" xml:space="preserve" xmlns:serif="http://www.serif.com/" style="fill-rule:evenodd;clip-rule:evenodd;stroke-linejoin:round;stroke-miterlimit:1.41421;"><ellipse cx="100" cy="156.9" rx="86.272" ry="10.179" style="fill:#3b9b97;"/><g><path d="M125.508,44.933l-4.37,99.886c-0.104,2.334 -1.132,4.243 -2.29,4.243l-46.312,0c-1.156,0 -2.199,-1.909 -2.288,-4.243l-4.372,-99.886l59.632,0Z" style="fill:#edf2f3;fill-rule:nonzero;"/><path d="M70.685,53.221l3.675,87.718c0.089,2.054 0.953,3.728 1.926,3.728l38.938,0c0.972,0 1.852,-1.674 1.926,-3.728l3.676,-87.718l-50.141,0Z" style="fill:#4d1c00;fill-rule:nonzero;"/><path d="M121.082,153.33l0,1.737l-50.65,0l0,-1.737c0,-1.168 0.472,-2.128 1.052,-2.128l48.546,0c0.588,0 1.052,0.96 1.052,2.128Z" style="fill:#edf2f3;fill-rule:nonzero;"/><path d="M95.683,149.062l-23.147,0c-1.156,0 -2.199,-1.909 -2.288,-4.243l-4.372,-99.886l29.807,0l0,8.288l-24.998,0l3.677,87.718c0.073,2.054 0.953,3.728 1.926,3.728l19.395,0l0,4.395Z" style="fill:#efe6e3;fill-rule:nonzero;"/><path d="M95.828,144.667l19.396,0c0.972,0 1.852,-1.674 1.926,-3.728l3.676,-87.718l-24.998,0l0,91.446Z" style="fill:#5d2400;fill-rule:nonzero;"/><path d="M103.196,137.274c-1.017,1.72 -3.258,2.299 -4.982,1.279l-9.396,-5.552c-1.722,-1.02 -2.299,-3.259 -1.281,-4.984l5.551,-9.396c1.018,-1.723 3.261,-2.298 4.984,-1.28l9.398,5.551c1.719,1.02 2.3,3.261 1.28,4.984l-5.554,9.398Z" style="fill:#752c00;fill-rule:nonzero;"/><path d="M101.085,110.804c0.322,1.972 -1.028,3.855 -3.006,4.175l-10.77,1.76c-1.977,0.318 -3.855,-1.034 -4.175,-3.007l-1.758,-10.773c-0.319,-1.976 1.032,-3.855 3.007,-4.177l10.771,-1.757c1.974,-0.319 3.854,1.03 4.176,3.005l1.755,10.774Z" style="fill:#752c00;fill-rule:nonzero;"/><path d="M113.087,94.374c-0.569,1.918 -2.602,3.023 -4.521,2.456l-10.464,-3.099c-1.917,-0.57 -3.022,-2.604 -2.455,-4.523l3.099,-10.466c0.569,-1.919 2.602,-3.023 4.523,-2.456l10.463,3.101c1.919,0.569 3.026,2.602 2.456,4.521l-3.101,10.466Z" style="fill:#752c00;fill-rule:nonzero;"/></g></svg>