<?xml version="1.0" encoding="UTF-8" standalone="no"?><!DOCTYPE svg PUBLIC "-//W3C//DTD SVG 1.1//EN" "http://www.w3.org/Graphics/SVG/1.1/DTD/svg11.dtd"><svg width="100%" height="100%" viewBox="0 0 200 200" version="1.1" xmlns="http://www.w3.org/2000/svg" xmlns:xlink="http://www.w3.org/1999/xlink" xml:space="preserve" xmlns:serif="http://www.serif.com/" style="fill-rule:evenodd;clip-rule:evenodd;stroke-linejoin:round;stroke-miterlimit:1.41421;"><ellipse cx="100" cy="156.9" rx="86.272" ry="10.179" style="fill:#3b9b97;"/><g><path d="M129.816,44.933l-4.37,99.886c-0.104,2.334 -1.132,4.243 -2.29,4.243l-46.312,0c-1.156,0 -2.199,-1.909 -2.288,-4.243l-4.372,-99.886l59.632,0Z" style="fill:#edf2f3;fill-rule:nonzero;"/><path d="M74.993,53.221l3.675,87.718c0.089,2.054 0.953,3.728 1.926,3.728l38.938,0c0.972,0 1.852,-1.674 1.926,-3.728l3.676,-87.718l-50.141,0Z" style="fill:#46d200;fill-rule:nonzero;"/><path d="M125.39,153.33l0,1.737l-50.65,0l0,-1.737c0,-1.168 0.472,-2.128 1.052,-2.128l48.546,0c0.588,0 1.052,0.96 1.052,2.128Z" style="fill:#edf2f3;fill-rule:nonzero;"/><path d="M99.991,149.062l-23.147,0c-1.156,0 -2.199,-1.909 -2.288,-4.243l-4.372,-99.886l29.807,0l0,8.288l-24.998,0l3.677,87.718c0.073,2.054 0.953,3.728 1.926,3.728l19.395,0l0,4.395Z" style="fill:#f1ebe9;fill-rule:nonzero;"/><path d="M100.136,144.667l19.396,0c0.972,0 1.852,-1.674 1.926,-3.728l3.676,-87.718l-24.998,0l0,91.446Z" style="fill:#13f900;fill-rule:nonzero;"/></g></svg>