<?xml version="1.0" encoding="UTF-8" standalone="no"?><!DOCTYPE svg PUBLIC "-//W3C//DTD SVG 1.1//EN" "http://www.w3.org/Graphics/SVG/1.1/DTD/svg11.dtd"><svg width="100%" height="100%" viewBox="0 0 200 200" version="1.1" xmlns="http://www.w3.org/2000/svg" xmlns:xlink="http://www.w3.org/1999/xlink" xml:space="preserve" xmlns:serif="http://www.serif.com/" style="fill-rule:evenodd;clip-rule:evenodd;stroke-linejoin:round;stroke-miterlimit:1.41421;"><ellipse cx="100" cy="156.9" rx="86.272" ry="10.179" style="fill:#3b9b97;"/><g><path d="M77.026,128.29c0,13.495 -10.492,24.433 -23.469,24.433c-12.941,0 -23.446,-10.938 -23.446,-24.433c0,-13.488 10.505,-24.432 23.446,-24.432c12.977,0 23.469,10.944 23.469,24.432Z" style="fill:#e67e00;fill-rule:nonzero;"/><g><path d="M122.772,44.895l-4.371,99.907c-0.104,2.334 -1.132,4.244 -2.291,4.244l-46.321,0c-1.156,0 -2.199,-1.91 -2.288,-4.244l-4.373,-99.907l59.644,0Z" style="fill:#edf2f3;fill-rule:nonzero;"/><path d="M118.089,53.184l-3.675,87.737c-0.089,2.054 -0.953,3.729 -1.927,3.729l-38.946,0c-0.972,0 -1.852,-1.675 -1.926,-3.729l-3.677,-87.737l50.151,0Z" style="fill:#e88e00;fill-rule:nonzero;"/><path d="M118.089,53.184l-1.963,87.737c-0.048,2.054 -0.509,3.729 -1.03,3.729l-20.807,0c-0.52,0 -0.99,-1.675 -1.029,-3.729l-1.965,-87.737l26.794,0Z" style="fill:#f6ab33;fill-rule:nonzero;"/><path d="M118.345,153.315l0,1.737l-50.66,0l0,-1.737c0,-1.168 0.472,-2.129 1.052,-2.129l48.556,0c0.588,0 1.052,0.961 1.052,2.129Z" style="fill:#edf2f3;fill-rule:nonzero;"/></g><path d="M169.889,133.388c-1.675,12.23 -14.673,21.717 -30.44,21.717c-15.786,0 -28.784,-9.487 -30.459,-21.717l60.899,0Z" style="fill:#e88e00;fill-rule:nonzero;"/><path d="M165.32,133.388c-1.657,10.214 -12.617,18.089 -25.871,18.089c-13.273,0 -24.233,-7.875 -25.89,-18.089l51.761,0Z" style="fill:#f9e27b;fill-rule:nonzero;"/></g></svg>