<?xml version="1.0" encoding="UTF-8" standalone="no"?><!DOCTYPE svg PUBLIC "-//W3C//DTD SVG 1.1//EN" "http://www.w3.org/Graphics/SVG/1.1/DTD/svg11.dtd"><svg width="100%" height="100%" viewBox="0 0 200 200" version="1.1" xmlns="http://www.w3.org/2000/svg" xmlns:xlink="http://www.w3.org/1999/xlink" xml:space="preserve" xmlns:serif="http://www.serif.com/" style="fill-rule:evenodd;clip-rule:evenodd;stroke-linejoin:round;stroke-miterlimit:1.41421;"><ellipse cx="100" cy="156.9" rx="86.272" ry="10.179" style="fill:#3b9b97;"/><g><path d="M108.656,43.516l-4.698,100.367c-0.14,3.146 -2.618,5.726 -5.495,5.726l-34.441,0c-2.878,0 -5.354,-2.58 -5.503,-5.726l-4.7,-100.367l54.837,0Z" style="fill:#edf2f3;fill-rule:nonzero;"/><path d="M104.044,157.5l0,-2.381c0,-2.106 -1.571,-3.824 -3.487,-3.824l-38.594,0c-1.92,0 -3.49,1.718 -3.49,3.824l0,2.381l45.571,0Z" style="fill:#edf2f3;fill-rule:nonzero;"/><path d="M106.061,48.575l-4.249,90.794c-0.127,2.845 -2.369,5.179 -4.971,5.179l-31.156,0c-2.604,0 -4.843,-2.334 -4.978,-5.179l-4.251,-90.794l49.605,0Z" style="fill:#e5de00;fill-rule:nonzero;"/><path d="M60.114,126.669l0.593,12.7c0.135,2.845 2.374,5.179 4.978,5.179l31.156,0c2.602,0 4.844,-2.334 4.971,-5.179l0.591,-12.7l-42.289,0Z" style="fill:#f0e601;fill-rule:nonzero;"/><path d="M105.168,67.169l0.87,-18.594l-49.603,0l0.871,18.594l47.862,0Z" style="fill:#e0dd00;fill-rule:nonzero;"/><path d="M81.239,149.609l-17.217,0c-2.878,0 -5.355,-2.58 -5.503,-5.726l-4.7,-100.367l4.7,100.367c0.149,3.146 2.625,5.726 5.503,5.726l17.217,0Z" style="fill:#65b7b3;fill-rule:nonzero;"/><path d="M81.239,149.609l-17.217,0c-2.878,0 -5.354,-2.58 -5.503,-5.726l-4.7,-100.367l27.42,0l0,5.059l-24.783,0l-0.021,0l0.871,18.594l0.02,0l3.381,72.2c0.135,2.845 2.374,5.179 4.978,5.179l15.554,0l0,5.061Z" style="fill:#e0e4e5;fill-rule:nonzero;"/><path d="M60.707,139.369l-3.381,-72.2l23.913,0l0,59.5l-21.125,0l0.593,12.7Z" style="fill:#bbbd33;fill-rule:nonzero;"/><path d="M81.239,144.548l-15.554,0c-2.604,0 -4.843,-2.334 -4.978,-5.179l-0.593,-12.7l21.125,0l0,17.879Z" style="fill:#c4b710;fill-rule:nonzero;"/><path d="M81.239,67.169l-23.913,0l-0.02,0l-0.871,-18.594l24.804,0l0,18.594Z" style="fill:#c3c353;fill-rule:nonzero;"/><g><path d="M78.791,137.703c9.887,18.604 27.448,25.04 52.343,17.703c24.895,-7.337 38.722,-24.272 34.209,-44.277c-6.943,10.879 -19.879,18.453 -38.996,24.087c-19.117,5.634 -36.877,8.172 -47.556,2.487Z" style="fill:#ada60f;"/><path d="M75.219,133.386c4.101,18.179 28.147,26.832 53.663,19.311c25.516,-7.52 42.901,-28.384 38.8,-46.562c-7.333,10.187 -23.561,21.486 -43.155,27.261c-19.594,5.775 -38.579,4.854 -49.308,-0.01Z" style="fill:#e8de14;"/><path d="M76.488,134.139c1.94,7.764 25.877,21.427 52.631,12.686c26.753,-8.741 39.448,-29.654 37.508,-37.418c-5.987,12.375 -16.351,26.317 -38.932,33.695c-22.58,7.377 -42.001,-2.453 -51.207,-8.963Z" style="fill:#dfd623;"/></g></g></svg>