<?xml version="1.0" encoding="UTF-8" standalone="no"?><!DOCTYPE svg PUBLIC "-//W3C//DTD SVG 1.1//EN" "http://www.w3.org/Graphics/SVG/1.1/DTD/svg11.dtd"><svg width="100%" height="100%" viewBox="0 0 200 200" version="1.1" xmlns="http://www.w3.org/2000/svg" xmlns:xlink="http://www.w3.org/1999/xlink" xml:space="preserve" xmlns:serif="http://www.serif.com/" style="fill-rule:evenodd;clip-rule:evenodd;stroke-linejoin:round;stroke-miterlimit:1.41421;"><ellipse cx="100" cy="156.9" rx="86.272" ry="10.179" style="fill:#3b9b97;"/><g><path d="M126.43,42.143l-4.698,100.368c-0.14,3.145 -2.618,5.726 -5.495,5.726l-34.441,0c-2.878,0 -5.354,-2.581 -5.503,-5.726l-4.7,-100.368l54.837,0Z" style="fill:#edf2f3;fill-rule:nonzero;"/><path d="M121.818,156.128l0,-2.381c0,-2.106 -1.571,-3.824 -3.487,-3.824l-38.594,0c-1.92,0 -3.49,1.718 -3.49,3.824l0,2.381l45.571,0Z" style="fill:#edf2f3;fill-rule:nonzero;"/><path d="M123.835,47.203l-4.249,90.793c-0.127,2.845 -2.369,5.179 -4.971,5.179l-31.156,0c-2.604,0 -4.843,-2.334 -4.978,-5.179l-4.251,-90.793l49.605,0Z" style="fill:#725142;fill-rule:nonzero;"/><path d="M77.888,125.297l0.593,12.699c0.135,2.845 2.374,5.179 4.978,5.179l31.156,0c2.602,0 4.844,-2.334 4.971,-5.179l0.591,-12.699l-42.289,0Z" style="fill:#866a5d;fill-rule:nonzero;"/><path d="M122.942,65.797l0.87,-18.594l-49.603,0l0.871,18.594l47.862,0Z" style="fill:#c3b4ae;fill-rule:nonzero;"/><path d="M99.013,148.237l-17.217,0c-2.878,0 -5.355,-2.581 -5.503,-5.726l-4.7,-100.368l4.7,100.368c0.149,3.145 2.625,5.726 5.503,5.726l17.217,0Z" style="fill:#65b7b3;fill-rule:nonzero;"/><path d="M99.013,148.237l-17.217,0c-2.878,0 -5.354,-2.581 -5.503,-5.726l-4.7,-100.368l27.42,0l0,5.06l-24.783,0l-0.021,0l0.871,18.594l0.02,0l3.381,72.199c0.135,2.845 2.374,5.179 4.978,5.179l15.554,0l0,5.062Z" style="fill:#e0e4e5;fill-rule:nonzero;"/><path d="M78.481,137.996l-3.381,-72.199l23.913,0l0,59.5l-21.125,0l0.593,12.699Z" style="fill:#8c756a;fill-rule:nonzero;"/><path d="M99.013,143.175l-15.554,0c-2.604,0 -4.843,-2.334 -4.978,-5.179l-0.593,-12.699l21.125,0l0,17.878Z" style="fill:#99877e;fill-rule:nonzero;"/><path d="M99.013,65.797l-23.913,0l-0.02,0l-0.871,-18.594l24.804,0l0,18.594Z" style="fill:#c4bab6;fill-rule:nonzero;"/><path d="M124.903,32.783c-0.745,0 -1.471,0.084 -2.173,0.24c-0.81,-1.839 -2.105,-3.397 -3.725,-4.498c-0.828,-5.026 -5.064,-8.86 -10.179,-8.86c-3.259,0 -6.162,1.561 -8.057,3.992c-1.165,-0.47 -2.431,-0.737 -3.759,-0.737c-0.509,0 -1.006,0.052 -1.496,0.124c-1.809,-3.087 -5.086,-5.152 -8.839,-5.152c-4.781,0 -8.791,3.349 -9.972,7.89c-6.689,0.589 -11.941,6.367 -11.941,13.412c0,7.436 5.848,13.463 13.062,13.463c4.73,0 8.871,-2.593 11.163,-6.47c1.579,3.804 5.24,6.47 9.507,6.47c3.13,0 5.932,-1.442 7.826,-3.708c1.691,3.506 5.192,5.927 9.254,5.927c1.985,0 3.834,-0.588 5.408,-1.588c1.21,0.513 2.532,0.801 3.921,0.801c5.708,0 10.335,-4.772 10.335,-10.654c0,-5.884 -4.627,-10.652 -10.335,-10.652Z" style="fill:#fffef8;fill-rule:nonzero;"/></g></svg>