<?xml version="1.0" encoding="UTF-8" standalone="no"?><!DOCTYPE svg PUBLIC "-//W3C//DTD SVG 1.1//EN" "http://www.w3.org/Graphics/SVG/1.1/DTD/svg11.dtd"><svg width="100%" height="100%" viewBox="0 0 200 200" version="1.1" xmlns="http://www.w3.org/2000/svg" xmlns:xlink="http://www.w3.org/1999/xlink" xml:space="preserve" xmlns:serif="http://www.serif.com/" style="fill-rule:evenodd;clip-rule:evenodd;stroke-linejoin:round;stroke-miterlimit:1.41421;"><ellipse cx="100" cy="156.9" rx="86.272" ry="10.179" style="fill:#3b9b97;"/><path d="M128.064,152.156c-0.188,3.391 -3.085,6.164 -6.435,6.164l-45.614,0c-3.346,0 -6.245,-2.773 -6.436,-6.164l-5.394,-95.485c-0.19,-3.388 2.393,-6.162 5.742,-6.162l57.791,0c3.35,0 5.934,2.774 5.742,6.162l-5.396,95.485Z" style="fill:#edf2f3;fill-rule:nonzero;"/><path d="M123.957,136.841c-0.164,2.435 -2.652,4.428 -5.53,4.428l-39.207,0c-2.878,0 -5.367,-1.993 -5.534,-4.428l-4.635,-68.641c-0.163,-2.438 2.057,-4.429 4.935,-4.429l49.674,0c2.878,0 5.098,1.991 4.936,4.429l-4.639,68.641Z" style="fill:#9ebc3b;fill-rule:nonzero;"/><path d="M98.825,158.32l-22.81,0c-3.346,0 -6.245,-2.773 -6.436,-6.164l-5.394,-95.485c-0.007,-0.118 -0.011,-0.236 -0.011,-0.354c0.004,-3.225 2.521,-5.808 5.753,-5.808l28.898,0l0,13.262l-24.839,0c-2.878,0 -5.098,1.991 -4.935,4.429l4.635,68.641c0.167,2.435 2.656,4.428 5.534,4.428l19.605,0l0,17.051Z" style="fill:#e0e4e5;fill-rule:nonzero;"/><path d="M98.825,141.269l-19.605,0c-2.878,0 -5.367,-1.993 -5.534,-4.428l-4.635,-68.641c-0.163,-2.438 2.057,-4.429 4.935,-4.429l24.839,0l0,77.498Z" style="fill:#aabf3c;fill-rule:nonzero;"/><path d="M147.108,68.096l-40.1,-23.421c6.377,-11.226 20.531,-15.086 31.597,-8.619c11.072,6.465 14.879,20.817 8.503,32.04Z" style="fill:#1fa75a;fill-rule:nonzero;"/><path d="M143.688,66.099l-33.262,-19.429c5.295,-9.319 17.031,-12.51 26.211,-7.148c9.181,5.363 12.345,17.257 7.051,26.577Z" style="fill:#63c08b;fill-rule:nonzero;"/></svg>