<?xml version="1.0" encoding="UTF-8" standalone="no"?><!DOCTYPE svg PUBLIC "-//W3C//DTD SVG 1.1//EN" "http://www.w3.org/Graphics/SVG/1.1/DTD/svg11.dtd"><svg width="100%" height="100%" viewBox="0 0 200 200" version="1.1" xmlns="http://www.w3.org/2000/svg" xmlns:xlink="http://www.w3.org/1999/xlink" xml:space="preserve" xmlns:serif="http://www.serif.com/" style="fill-rule:evenodd;clip-rule:evenodd;stroke-linejoin:round;stroke-miterlimit:1.41421;"><ellipse cx="100" cy="156.9" rx="86.272" ry="10.179" style="fill:#3b9b97;"/><g><path d="M113.087,120.08l-1.918,33.091c-0.046,0.774 -0.497,1.406 -1.005,1.406l-20.328,0c-0.507,0 -0.965,-0.632 -1.004,-1.406l-1.919,-33.091l26.174,0Z" style="fill:#edf2f3;fill-rule:nonzero;"/><path d="M89.024,122.826l1.613,29.06c0.039,0.68 0.418,1.235 0.845,1.235l17.091,0c0.427,0 0.813,-0.555 0.846,-1.235l1.613,-29.06l-22.008,0Z" style="fill:#d2d1cb;fill-rule:nonzero;"/><path d="M111.144,155.991l0,0.575l-22.231,0l0,-0.575c0,-0.387 0.207,-0.705 0.461,-0.705l21.309,0c0.258,0 0.461,0.318 0.461,0.705Z" style="fill:#edf2f3;fill-rule:nonzero;"/><path d="M99.996,154.577l-10.16,0c-0.507,0 -0.965,-0.632 -1.004,-1.406l-1.919,-33.091l13.083,0l0,2.746l-10.972,0l1.613,29.06c0.033,0.68 0.419,1.235 0.846,1.235l8.513,0l0,1.456Z" style="fill:#f1ebe9;fill-rule:nonzero;"/><path d="M100.06,153.121l8.513,0c0.427,0 0.813,-0.555 0.846,-1.235l1.613,-29.06l-10.972,0l0,30.295Z" style="fill:#f9f5e2;fill-rule:nonzero;"/><g><path d="M86.913,120.566l1.918,-3.8c0.046,-0.088 0.497,-0.161 1.005,-0.161l20.328,0c0.507,0 0.965,0.073 1.004,0.161l1.919,3.8l-26.174,0Z" style="fill:#edead5;fill-rule:nonzero;"/><path d="M110.976,120.251l-1.613,-3.337c-0.039,-0.078 -0.418,-0.142 -0.845,-0.142l-17.091,0c-0.427,0 -0.813,0.064 -0.846,0.142l-1.613,3.337l22.008,0Z" style="fill:#edead5;fill-rule:nonzero;"/><path d="M88.856,116.443l0,-0.066l22.231,0l0,0.066c0,0.044 -0.207,0.081 -0.461,0.081l-21.309,0c-0.258,0 -0.461,-0.037 -0.461,-0.081Z" style="fill:#edead5;fill-rule:nonzero;"/><path d="M100.004,116.605l10.16,0c0.507,0 0.965,0.073 1.004,0.161l1.919,3.8l-13.083,0l0,-0.315l10.972,0l-1.613,-3.337c-0.033,-0.078 -0.419,-0.142 -0.846,-0.142l-8.513,0l0,-0.167Z" style="fill:#edead5;fill-rule:nonzero;"/><path d="M99.94,116.772l-8.513,0c-0.427,0 -0.813,0.064 -0.846,0.142l-1.613,3.337l10.972,0l0,-3.479Z" style="fill:#edead5;fill-rule:nonzero;"/></g></g></svg>