<?xml version="1.0" encoding="UTF-8" standalone="no"?><!DOCTYPE svg PUBLIC "-//W3C//DTD SVG 1.1//EN" "http://www.w3.org/Graphics/SVG/1.1/DTD/svg11.dtd"><svg width="100%" height="100%" viewBox="0 0 200 200" version="1.1" xmlns="http://www.w3.org/2000/svg" xmlns:xlink="http://www.w3.org/1999/xlink" xml:space="preserve" xmlns:serif="http://www.serif.com/" style="fill-rule:evenodd;clip-rule:evenodd;stroke-linejoin:round;stroke-miterlimit:1.41421;"><g><ellipse cx="100" cy="157.931" rx="86.272" ry="10.179" style="fill:#3b9b97;"/><g><path d="M59.848,31.89c-1.292,4.957 -2.001,10.243 -2.001,15.737c0,28.184 18.366,51.032 41.02,51.032c22.654,0 41.019,-22.848 41.019,-51.032c0,-5.494 -0.71,-10.78 -2.001,-15.737l-78.037,0Z" style="fill:#edf2f3;fill-rule:nonzero;"/><path d="M121.761,155.882l0,0.639l-45.797,0l0,-0.639c0,-0.603 0.563,-1.094 1.236,-1.094l18.766,0l0,-55.154c0.96,0.087 1.921,0.123 2.897,0.123c0.975,0 1.948,-0.036 2.91,-0.123l0,55.154l18.766,0c0.672,0 1.222,0.491 1.222,1.094Z" style="fill:#edf2f3;fill-rule:nonzero;"/><path d="M64.751,41.892c-1.129,4.004 -1.75,8.272 -1.75,12.711c0,22.762 16.057,41.214 35.866,41.214c19.807,0 35.864,-18.452 35.864,-41.214c0,-4.439 -0.62,-8.707 -1.75,-12.711l-68.23,0Z" style="fill:#c43744;fill-rule:nonzero;"/><path d="M98.868,98.659c-21.417,0 -38.999,-20.417 -40.859,-46.458c-0.107,-1.508 -0.162,-3.032 -0.162,-4.574c0,-5.494 0.709,-10.78 2.001,-15.737l39.02,0l0,10.002l-34.117,0c-1.129,4.004 -1.75,8.272 -1.75,12.711c0,22.762 16.057,41.214 35.866,41.214l0.001,2.842l-0.001,0" style="fill:#e0e4e5;fill-rule:nonzero;"/><path d="M98.867,95.817c-19.809,0 -35.866,-18.452 -35.866,-41.214c0,-4.439 0.621,-8.707 1.75,-12.711l34.117,0l0,53.925l-0.001,0Z" style="fill:#7e2741;fill-rule:nonzero;"/></g></g></svg>