<?xml version="1.0" encoding="UTF-8" standalone="no"?><!DOCTYPE svg PUBLIC "-//W3C//DTD SVG 1.1//EN" "http://www.w3.org/Graphics/SVG/1.1/DTD/svg11.dtd"><svg width="100%" height="100%" viewBox="0 0 200 200" version="1.1" xmlns="http://www.w3.org/2000/svg" xmlns:xlink="http://www.w3.org/1999/xlink" xml:space="preserve" xmlns:serif="http://www.serif.com/" style="fill-rule:evenodd;clip-rule:evenodd;stroke-linejoin:round;stroke-miterlimit:1.41421;"><ellipse cx="100" cy="156.9" rx="86.272" ry="10.179" style="fill:#3b9b97;"/><path d="M141.171,90.927c12.024,-0.414 22.122,9.012 22.536,21.036c0.414,12.024 -9.012,22.121 -21.036,22.535c-12.024,0.414 -22.122,-9.012 -22.536,-21.036c-0.414,-12.024 9.012,-22.122 21.036,-22.535Z" style="fill:#2ecf73;"/><path d="M139.409,93.877l1.279,37.154c-9.773,-0.242 -17.794,-8.078 -18.135,-17.975c-0.341,-9.897 7.123,-18.266 16.856,-19.179Z" style="fill:#17b85c;"/><path d="M144.697,83.307c-2.089,-0.617 -4.695,1.963 -5.815,5.756c-1.12,3.794 -0.333,7.374 1.757,7.991c-0.154,-1.789 0.084,-4.467 0.893,-7.209c0.809,-2.742 2.064,-5.119 3.165,-6.538Z" style="fill:#108d45;"/><path d="M137.044,123.124c0,14.624 -13.756,26.477 -30.768,26.477c-16.966,0 -30.737,-11.853 -30.737,-26.477c0,-14.617 13.771,-26.477 30.737,-26.477c17.012,0 30.768,11.86 30.768,26.477Z" style="fill:#e0881d;fill-rule:nonzero;"/><path d="M132.584,124.68c0,13.765 -12.759,24.921 -28.537,24.921c-15.735,0 -28.508,-11.156 -28.508,-24.921c0,-13.758 12.773,-24.921 28.508,-24.921c15.778,0 28.537,11.163 28.537,24.921Z" style="fill:#e67e00;fill-rule:nonzero;"/><path d="M70.801,137.946c0,10.649 -8.403,19.28 -18.794,19.28c-10.364,0 -18.776,-8.631 -18.776,-19.28c0,-10.644 8.412,-19.28 18.776,-19.28c10.391,0 18.794,8.636 18.794,19.28Z" style="fill:#e0881d;fill-rule:nonzero;"/><path d="M68.077,139.079c0,10.023 -7.794,18.147 -17.432,18.147c-9.612,0 -17.414,-8.124 -17.414,-18.147c0,-10.018 7.802,-18.147 17.414,-18.147c9.638,0 17.432,8.129 17.432,18.147Z" style="fill:#e67e00;fill-rule:nonzero;"/><path d="M116.5,37.629l-34.871,0l-34.872,0c-3.774,0 -6.686,3.08 -6.471,6.85c0,0 10.135,37.882 12.752,53.066c2.31,13.39 2.543,53.064 2.543,53.064c0.215,3.769 3.48,6.853 7.255,6.853l37.585,0c3.775,0 7.039,-3.084 7.255,-6.853c0,0 0.234,-39.674 2.543,-53.064c2.616,-15.184 12.751,-53.066 12.751,-53.066c0.216,-3.77 -2.696,-6.85 -6.47,-6.85Z" style="fill:#edf2f3;fill-rule:nonzero;"/><path d="M81.627,157.462l-18.791,0c-1.669,0 -3.238,-0.603 -4.489,-1.601c1.251,0.998 2.82,1.601 4.489,1.601l18.791,0Z" style="fill:#65b7b3;fill-rule:nonzero;"/><path d="M81.627,157.462l-18.791,0c-1.669,0 -3.238,-0.603 -4.489,-1.601c-1.576,-1.261 -2.645,-3.15 -2.764,-5.252c0,0 -0.234,-39.674 -2.543,-53.064c-2.397,-13.893 -11.085,-46.794 -12.545,-52.283c-0.135,-0.511 -0.209,-0.783 -0.209,-0.783c-0.007,-0.133 -0.012,-0.264 -0.012,-0.396c0.003,-3.586 2.842,-6.454 6.485,-6.454l34.868,0l0,25.051l-26.414,0c-3.109,0 -5.506,2.127 -5.33,4.729c0,0 6.041,26.14 8.199,36.617c1.328,6.457 1.823,21.759 2.001,30.398c5.949,3.89 13.413,6.222 21.544,6.222l0,16.816Z" style="fill:#e0e4e5;fill-rule:nonzero;"/><path d="M71.896,130.183c11.747,25.265 32.612,34.007 62.191,24.042c29.579,-9.965 46.009,-32.964 40.646,-60.133c-8.249,14.775 -23.619,25.061 -46.333,32.713c-22.714,7.652 -43.815,11.098 -56.504,3.378Z" style="fill:#ada60f;"/><path d="M63.087,141.395c5.609,4.972 12.647,3.953 20.314,3.953c7.666,0 14.704,1.019 20.313,-3.953c0.167,-11.044 0.633,-30.606 1.884,-38.861c2.035,-13.393 7.731,-46.808 7.731,-46.808c0.168,-3.326 -2.094,-6.046 -5.025,-6.046l-24.903,0l-24.904,0c-2.932,0 -5.191,2.72 -5.026,6.046c0,0 5.696,33.415 7.731,46.808c1.252,8.255 1.718,27.817 1.885,38.861Z" style="fill:#52b339;fill-rule:nonzero;"/><path d="M81.472,146.348c-8.6,0 -16.494,0.019 -22.786,-4.953c-0.188,-11.044 -0.711,-30.606 -2.116,-38.861c-2.281,-13.393 -8.671,-46.808 -8.671,-46.808c-0.186,-3.326 2.349,-6.046 5.638,-6.046l27.935,0l0,96.668Z" style="fill:#5e9e4b;fill-rule:nonzero;"/><path d="M67.652,124.32c4.873,24.688 33.443,36.44 63.759,26.226c30.317,-10.213 50.974,-38.548 46.101,-63.236c-8.712,13.835 -27.994,29.18 -51.275,37.023c-23.28,7.843 -45.838,6.593 -58.585,-0.013Z" style="fill:#e8de14;"/><path d="M69.16,125.342c2.305,10.545 30.746,29.1 62.533,17.229c31.788,-11.87 46.871,-40.273 44.566,-50.817c-7.113,16.806 -19.428,35.741 -46.257,45.76c-26.829,10.019 -49.905,-3.33 -60.842,-12.172Z" style="fill:#dfd623;"/></svg>