<?xml version="1.0" encoding="UTF-8" standalone="no"?><!DOCTYPE svg PUBLIC "-//W3C//DTD SVG 1.1//EN" "http://www.w3.org/Graphics/SVG/1.1/DTD/svg11.dtd"><svg width="100%" height="100%" viewBox="0 0 200 200" version="1.1" xmlns="http://www.w3.org/2000/svg" xmlns:xlink="http://www.w3.org/1999/xlink" xml:space="preserve" xmlns:serif="http://www.serif.com/" style="fill-rule:evenodd;clip-rule:evenodd;stroke-linejoin:round;stroke-miterlimit:1.41421;"><ellipse cx="100" cy="157.578" rx="86.272" ry="10.179" style="fill:#3b9b97;"/><path d="M139.983,148.049c-0.165,1.878 -1.82,3.417 -3.68,3.417l-74.397,0c-1.86,0 -3.517,-1.539 -3.68,-3.417l-7.014,-80.391c-0.162,-1.879 1.226,-3.415 3.085,-3.415l89.612,0c1.861,0 3.251,1.536 3.087,3.415l-7.013,80.391Z" style="fill:#edf2f3;fill-rule:nonzero;"/><path d="M139.893,157.68c0,0.941 -0.76,1.713 -1.69,1.713l-77.989,0c-0.929,0 -1.69,-0.772 -1.69,-1.713l0,-2.787c0,-0.941 0.761,-1.714 1.69,-1.714l77.989,0c0.93,0 1.69,0.773 1.69,1.714l0,2.787Z" style="fill:#edf2f3;fill-rule:nonzero;"/><path d="M58.294,117.605l2.448,28.073c0.155,1.77 1.713,3.215 3.462,3.215l70.009,0c1.753,0 3.31,-1.445 3.465,-3.215l2.447,-28.073l-81.831,0Z" style="fill:#c07629;fill-rule:nonzero;"/><path d="M123.523,142.67c-1.216,2.085 -3.89,2.781 -5.947,1.551l-11.214,-6.718c-2.053,-1.233 -2.741,-3.946 -1.528,-6.031l6.627,-11.369c1.214,-2.086 3.89,-2.783 5.947,-1.553l11.212,6.721c2.054,1.233 2.745,3.944 1.529,6.029l-6.626,11.37Z" style="fill:#ac4d09;fill-rule:nonzero;"/><path d="M111.38,139.314c0.696,2.317 -0.605,4.788 -2.89,5.488l-12.465,3.837c-2.283,0.704 -4.721,-0.617 -5.415,-2.934l-3.784,-12.637c-0.694,-2.317 0.609,-4.788 2.894,-5.491l12.466,-3.835c2.283,-0.703 4.718,0.617 5.412,2.935l3.782,12.637Z" style="fill:#ac4d09;fill-rule:nonzero;"/><path d="M99.104,151.466l-37.198,0c-1.86,0 -3.517,-1.539 -3.68,-3.417l-7.014,-80.391c-0.164,-1.857 1.194,-3.379 3.021,-3.415c-1.827,0.036 -3.181,1.558 -3.021,3.415l7.014,80.391c0.163,1.878 1.82,3.417 3.68,3.417l37.198,0Z" style="fill:#65b7b3;fill-rule:nonzero;"/><path d="M99.104,151.466l-37.198,0c-1.86,0 -3.517,-1.539 -3.68,-3.417l-7.014,-80.391c-0.16,-1.857 1.194,-3.379 3.021,-3.415l44.871,0l0,53.362l-40.81,0l2.448,28.073c0.155,1.77 1.713,3.215 3.462,3.215l34.9,0l0,2.573Z" style="fill:#e0e4e5;fill-rule:nonzero;"/><path d="M99.104,148.893l-34.9,0c-1.749,0 -3.307,-1.445 -3.462,-3.215l-2.448,-28.073l40.81,0l0,7.086l-9.384,2.886c-2.285,0.703 -3.588,3.174 -2.894,5.491l3.784,12.637c0.568,1.895 2.301,3.123 4.163,3.123c0.415,0 0.836,-0.061 1.252,-0.189l3.079,-0.948l0,1.202Z" style="fill:#711b05;fill-rule:nonzero;"/><path d="M94.773,148.828c-1.862,0 -3.595,-1.228 -4.163,-3.123l-3.784,-12.637c-0.694,-2.317 0.609,-4.788 2.894,-5.491l9.384,-2.886l0,23l-3.079,0.948c-0.416,0.128 -0.837,0.189 -1.252,0.189Z" style="fill:#a71600;fill-rule:nonzero;"/></svg>