<?xml version="1.0" encoding="UTF-8" standalone="no"?><!DOCTYPE svg PUBLIC "-//W3C//DTD SVG 1.1//EN" "http://www.w3.org/Graphics/SVG/1.1/DTD/svg11.dtd"><svg width="100%" height="100%" viewBox="0 0 200 200" version="1.1" xmlns="http://www.w3.org/2000/svg" xmlns:xlink="http://www.w3.org/1999/xlink" xml:space="preserve" xmlns:serif="http://www.serif.com/" style="fill-rule:evenodd;clip-rule:evenodd;stroke-linejoin:round;stroke-miterlimit:1.41421;"><ellipse cx="100" cy="156.9" rx="86.272" ry="10.179" style="fill:#3b9b97;"/><path d="M70.946,75.192l4.018,78.047c0.108,2.088 1.908,3.803 4.004,3.803l42.065,0c2.095,0 3.895,-1.715 4.002,-3.803l4.019,-78.047l-58.108,0Z" style="fill:#edf2f3;fill-rule:nonzero;"/><path d="M73.274,78.467l3.696,71.797c0.101,1.925 1.756,3.499 3.681,3.499l38.698,0c1.926,0 3.581,-1.574 3.68,-3.499l3.698,-71.797l-53.453,0Z" style="fill:#725142;fill-rule:nonzero;"/><path d="M126.728,78.467l-2.22,43.147l-49.015,0l-2.22,-43.147l53.455,0Z" style="fill:#c3b4ae;fill-rule:nonzero;"/><path d="M126.728,78.467l-2.22,43.147l-49.015,0l-2.22,-43.147l53.455,0Z" style="fill:#c3b4ae;fill-rule:nonzero;"/><path d="M100.001,157.042l-21.033,0c-2.096,0 -3.896,-1.715 -4.004,-3.803l-4.018,-78.047l29.055,0l0,3.275l-26.727,0l-0.001,0l2.22,43.147l0.002,0l1.475,28.65c0.101,1.925 1.756,3.499 3.681,3.499l19.35,0l0,3.279Z" style="fill:#e0e4e5;fill-rule:nonzero;"/><path d="M100.001,153.763l-19.35,0c-1.925,0 -3.58,-1.574 -3.681,-3.499l-1.475,-28.65l24.506,0l0,32.149Z" style="fill:#8c756a;fill-rule:nonzero;"/><path d="M100.001,121.614l-24.506,0l-0.002,0l-2.22,-43.147l26.728,0l0,43.147Z" style="fill:#c4bab6;fill-rule:nonzero;"/><rect x="72.121" y="71.047" width="55.757" height="0.11" style="fill:#edf2f3;fill-rule:nonzero;"/><path d="M126.389,78.471l-52.491,0c-0.191,-0.747 -0.287,-1.521 -0.287,-2.328c0,-5.356 4.347,-9.702 9.703,-9.702c0.805,0 1.587,0.107 2.334,0.299c0,-0.102 -0.012,-0.197 -0.012,-0.299c0,-2.975 2.418,-5.392 5.393,-5.392c0.495,0 0.963,0.071 1.422,0.195c0.296,-2.151 1.885,-3.998 4.13,-4.509c2.844,-0.656 5.67,1.079 6.408,3.873c0.589,-0.219 1.23,-0.347 1.899,-0.347c1.891,0 3.551,0.977 4.516,2.45c0.979,-1.022 2.353,-1.662 3.882,-1.662c2.977,0 5.392,2.417 5.392,5.392c0,0.87 -0.206,1.688 -0.574,2.417c1.952,0.559 3.458,2.183 3.823,4.213c2.109,1.182 3.698,3.109 4.462,5.4Z" style="fill:#f8f6f6;fill-rule:nonzero;"/></svg>