<?xml version="1.0" encoding="UTF-8" standalone="no"?><!DOCTYPE svg PUBLIC "-//W3C//DTD SVG 1.1//EN" "http://www.w3.org/Graphics/SVG/1.1/DTD/svg11.dtd"><svg width="100%" height="100%" viewBox="0 0 200 200" version="1.1" xmlns="http://www.w3.org/2000/svg" xmlns:xlink="http://www.w3.org/1999/xlink" xml:space="preserve" xmlns:serif="http://www.serif.com/" style="fill-rule:evenodd;clip-rule:evenodd;stroke-linejoin:round;stroke-miterlimit:1.41421;"><ellipse cx="100" cy="156.9" rx="86.272" ry="10.179" style="fill:#3b9b97;"/><path d="M47.474,94.903l0,0.001c0,28.791 23.728,52.136 52.998,52.136c29.271,0 53,-23.345 53,-52.136l0,-0.001l-105.998,0Z" style="fill:#f79f7e;fill-rule:nonzero;"/><path d="M151.224,150.093l-101.501,0c-1.239,0 -2.249,1.219 -2.249,2.711l0,4.405l105.998,0l0,-3.049l0,-1.356c0,-1.492 -1.013,-2.711 -2.248,-2.711Z" style="fill:#f79f7e;fill-rule:nonzero;"/><path d="M153.397,96.645l-0.031,0c-0.078,2.699 -0.383,5.357 -0.878,7.931c3.847,0.839 7.031,3.076 7.031,7.89c0,6.51 -4.908,10.247 -10.306,10.247c-1.159,0 -2.488,-0.024 -3.859,-0.147c-1.326,2.1 -2.825,4.106 -4.443,5.991c3.836,0.719 8.302,0.527 11.654,0.394c7.316,-0.299 13.961,-7.756 13.961,-16.497c0,-8.734 -5.871,-15.809 -13.129,-15.809Z" style="fill:#ce866a;fill-rule:nonzero;"/><path d="M107.257,67.657c-0.086,-2.453 -1.51,-5.052 -2.814,-6.662c-0.687,-0.846 -1.424,-1.377 -2.137,-1.888c-0.213,-0.154 -0.425,-0.302 -0.636,-0.465c-0.478,-0.371 -0.7,-0.83 -0.695,-1.456c0.014,-1.172 0.819,-2.525 1.556,-3.058c0.552,-0.397 0.805,-1.199 0.624,-1.997c-0.179,-0.803 -0.717,-1.34 -1.338,-1.34c-0.23,0 -0.463,0.077 -0.667,0.224c-1.437,1.032 -2.977,3.065 -2.983,5.679c-0.01,3.296 1.475,4.622 2.864,5.61c1.52,1.077 4.077,4.042 3.423,6.357c-0.092,0.321 -0.368,1.3 -2.529,1.3c-0.696,0 -1.379,-0.105 -1.828,-0.179l-0.171,-0.01c-0.708,0 -1.26,0.683 -1.306,1.621c-0.053,1.015 0.472,1.865 1.217,1.983c0.578,0.088 1.15,0.136 1.706,0.136c2.077,0 3.628,-0.636 4.61,-1.884c0.787,-1.005 1.16,-2.341 1.104,-3.971Z" style="fill:#725142;fill-rule:nonzero;"/><path d="M100.103,84.229c-0.091,-2.457 -1.511,-5.052 -2.817,-6.664c-0.685,-0.846 -1.421,-1.374 -2.14,-1.888c-0.209,-0.151 -0.42,-0.304 -0.633,-0.465c-0.481,-0.368 -0.698,-0.829 -0.692,-1.455c0.014,-1.171 0.815,-2.526 1.555,-3.057c0.552,-0.399 0.802,-1.198 0.626,-1.997c-0.181,-0.803 -0.719,-1.342 -1.34,-1.342c-0.234,0 -0.465,0.076 -0.665,0.225c-1.439,1.031 -2.981,3.064 -2.986,5.676c-0.012,3.297 1.472,4.627 2.864,5.612c1.521,1.074 4.078,4.043 3.424,6.357c-0.094,0.322 -0.369,1.3 -2.529,1.3c-0.698,0 -1.381,-0.106 -1.83,-0.175l-0.169,-0.015c-0.707,0 -1.259,0.682 -1.304,1.621c-0.054,1.014 0.469,1.869 1.215,1.981c0.577,0.093 1.147,0.139 1.703,0.139c2.077,0 3.629,-0.636 4.613,-1.884c0.788,-1.005 1.159,-2.338 1.105,-3.969Z" style="fill:#725142;fill-rule:nonzero;"/><path d="M54.154,98.189c0,25.167 20.739,45.564 46.318,45.564c25.581,0 46.32,-20.397 46.32,-45.564l-92.638,0Z" style="fill:#725142;fill-rule:nonzero;"/><path d="M100.472,147.04c-29.27,0 -52.998,-23.345 -52.998,-52.136l0,-0.001l52.998,0l0,3.286l-46.318,0c0,25.167 20.739,45.564 46.318,45.564l0,3.287Z" style="fill:#eb9778;fill-rule:nonzero;"/><path d="M100.472,143.753c-25.579,0 -46.318,-20.397 -46.318,-45.564l46.318,0l0,45.564Z" style="fill:#8d624e;fill-rule:nonzero;"/></svg>