<?xml version="1.0" encoding="UTF-8" standalone="no"?><!DOCTYPE svg PUBLIC "-//W3C//DTD SVG 1.1//EN" "http://www.w3.org/Graphics/SVG/1.1/DTD/svg11.dtd"><svg width="100%" height="100%" viewBox="0 0 200 200" version="1.1" xmlns="http://www.w3.org/2000/svg" xmlns:xlink="http://www.w3.org/1999/xlink" xml:space="preserve" xmlns:serif="http://www.serif.com/" style="fill-rule:evenodd;clip-rule:evenodd;stroke-linejoin:round;stroke-miterlimit:1.41421;"><ellipse cx="100" cy="156.9" rx="86.272" ry="10.179" style="fill:#3b9b97;"/><g><path d="M128.822,44.922l-4.371,99.907c-0.104,2.334 -1.132,4.244 -2.29,4.244l-46.322,0c-1.156,0 -2.199,-1.91 -2.288,-4.244l-4.373,-99.907l59.644,0Z" style="fill:#edf2f3;fill-rule:nonzero;"/><path d="M124.14,53.211l-3.676,87.737c-0.089,2.054 -0.953,3.729 -1.926,3.729l-38.947,0c-0.972,0 -1.852,-1.675 -1.926,-3.729l-3.677,-87.737l50.152,0Z" style="fill:#f79700;fill-rule:nonzero;"/><path d="M124.14,53.211l-1.964,87.737c-0.048,2.054 -0.509,3.729 -1.029,3.729l-20.808,0c-0.519,0 -0.99,-1.675 -1.029,-3.729l-1.965,-87.737l26.795,0Z" style="fill:#ff9c00;fill-rule:nonzero;"/><path d="M124.395,153.342l0,1.736l-50.66,0l0,-1.736c0,-1.168 0.472,-2.129 1.052,-2.129l48.556,0c0.588,0 1.052,0.961 1.052,2.129Z" style="fill:#edf2f3;fill-rule:nonzero;"/></g></svg>