<?xml version="1.0" encoding="UTF-8" standalone="no"?><!DOCTYPE svg PUBLIC "-//W3C//DTD SVG 1.1//EN" "http://www.w3.org/Graphics/SVG/1.1/DTD/svg11.dtd"><svg width="100%" height="100%" viewBox="0 0 200 200" version="1.1" xmlns="http://www.w3.org/2000/svg" xmlns:xlink="http://www.w3.org/1999/xlink" xml:space="preserve" xmlns:serif="http://www.serif.com/" style="fill-rule:evenodd;clip-rule:evenodd;stroke-linejoin:round;stroke-miterlimit:1.41421;"><ellipse cx="100" cy="157.044" rx="86.272" ry="10.179" style="fill:#3b9b97;"/><path d="M61.683,32.778c-1.268,5.01 -1.965,10.351 -1.965,15.904c0,28.482 18.035,51.572 40.282,51.572c22.247,0 40.282,-23.09 40.282,-51.572c0,-5.553 -0.698,-10.894 -1.965,-15.904l-76.634,0Z" style="fill:#edf2f3;fill-rule:nonzero;"/><path d="M122.482,158.083l0,0.646l-44.972,0l0,-0.646c0,-0.609 0.552,-1.105 1.213,-1.105l18.429,0l0,-55.739c0.942,0.088 1.886,0.124 2.844,0.124c0.958,0 1.914,-0.036 2.858,-0.124l0,55.739l18.428,0c0.66,0 1.2,0.496 1.2,1.105Z" style="fill:#edf2f3;fill-rule:nonzero;"/><path d="M66.498,42.886c-1.108,4.047 -1.718,8.36 -1.718,12.845c0,23.004 15.768,41.65 35.22,41.65c19.451,0 35.219,-18.646 35.219,-41.65c0,-4.485 -0.609,-8.798 -1.718,-12.845l-67.003,0Z" style="fill:#b7e4ba;fill-rule:nonzero;"/><path d="M100.001,100.254c-21.031,0 -38.297,-20.634 -40.124,-46.95c-0.105,-1.524 -0.159,-3.064 -0.159,-4.622c0,-5.553 0.697,-10.894 1.965,-15.904l38.318,0l0,10.108l-33.503,0c-1.108,4.047 -1.718,8.36 -1.718,12.845c0,23.004 15.768,41.65 35.22,41.65l0.001,2.873l-0.001,0" style="fill:#e0e4e5;fill-rule:nonzero;"/><path d="M100,97.381c-19.452,0 -35.22,-18.646 -35.22,-41.65c0,-4.485 0.61,-8.798 1.718,-12.845l33.503,0l0,54.495l-0.001,0Z" style="fill:#abd9c7;fill-rule:nonzero;"/></svg>